<?xml version="1.0" encoding="utf-8"?>
<svg xmlns="http://www.w3.org/2000/svg" viewBox="88.0373 95.8776 248.1433 243.4251" width="248.143px" height="243.425px">
  <path style="fill: rgb(253, 191, 0); stroke: rgba(0, 0, 0, 0);" d="M 106.79 279.201 C 106.79 279.201 116.051 203.9 194.373 225.846 C 184.508 307.791 106.79 279.201 106.79 279.201 Z"/>
  <path style="fill: rgb(253, 191, 0); stroke: rgba(0, 0, 0, 0); transform-origin: 212.489px 149.474px;" d="M 168.697 175.742 C 168.697 175.742 177.958 100.441 256.281 122.387 C 246.415 204.332 168.697 175.742 168.697 175.742 Z" transform="matrix(-0.52489900589, 0.851165115833, -0.851165115833, -0.52489900589, 0.000018038848, -0.000001719805)"/>
  <path style="fill: rgb(253, 191, 0); stroke: rgba(0, 0, 0, 0); transform-origin: 213.758px 285.706px;" d="M 169.967 311.974 C 169.967 311.974 179.228 236.673 257.55 258.619 C 247.685 340.564 169.967 311.974 169.967 311.974 Z" transform="matrix(-0.52489900589, 0.851165115833, -0.851165115833, -0.52489900589, 0.000027071331, -0.00000318404)"/>
  <path style="fill: rgb(253, 191, 0); stroke: rgba(0, 0, 0, 0); transform-origin: 273.397px 253.667px;" d="M 229.606 279.935 C 229.606 279.935 238.867 204.634 317.189 226.58 C 307.324 308.525 229.606 279.935 229.606 279.935 Z" transform="matrix(-0.490112006664, -0.871658921242, 0.871658921242, -0.490112006664, -0.000012229713, -0.000031189671)"/>
  <path style="fill: rgb(253, 191, 0); stroke: rgba(0, 0, 0, 0); transform-origin: 151.898px 182.713px;" d="M 108.108 208.981 C 108.108 208.981 117.369 133.68 195.69 155.626 C 185.825 237.571 108.108 208.981 108.108 208.981 Z" transform="matrix(-0.490112006664, -0.871658921242, 0.871658921242, -0.490112006664, -0.00000969163, -0.000033087621)"/>
  <path style="fill: rgb(253, 191, 0); stroke: rgba(0, 0, 0, 0);" d="M 229.287 208.981 C 229.287 208.981 238.548 133.68 316.87 155.626 C 307.005 237.571 229.287 208.981 229.287 208.981 Z"/>
  <path style="fill: rgb(255, 218, 45); stroke: rgba(0, 0, 0, 0); transform-origin: 141.512px 216.999px;" d="M 97.72 243.267 C 97.72 243.267 106.981 167.965 185.303 189.911 C 175.438 271.857 97.72 243.267 97.72 243.267 Z" transform="matrix(0.865931928158, 0.500161111355, -0.500161111355, 0.865931928158, -0.000019458222, 0.000005832538)"/>
  <path style="fill: rgb(255, 218, 45); stroke: rgba(0, 0, 0, 0); transform-origin: 246.865px 158.373px;" d="M 203.074 184.641 C 203.074 184.641 212.335 109.34 290.657 131.286 C 280.792 213.231 203.074 184.641 203.074 184.641 Z" transform="matrix(-0.880245923996, 0.474517077208, -0.474517077208, -0.880245923996, -0.000055268266, 0.000007457932)"/>
  <path style="fill: rgb(255, 218, 45); stroke: rgba(0, 0, 0, 0); transform-origin: 179.826px 276.977px;" d="M 136.035 303.245 C 136.035 303.245 145.296 227.944 223.619 249.89 C 213.754 331.835 136.035 303.245 136.035 303.245 Z" transform="matrix(-0.880245923996, 0.474517077208, -0.474517077208, -0.880245923996, 0.00004631235, -0.000034573737)"/>
  <path style="fill: rgb(255, 218, 45); stroke: rgba(0, 0, 0, 0); transform-origin: 247.494px 279.063px;" d="M 203.703 305.331 C 203.703 305.331 212.964 230.03 291.285 251.976 C 281.421 333.921 203.703 305.331 203.703 305.331 Z" transform="matrix(0.011566001922, -0.999932944775, 0.999932944775, 0.011566001922, -0.000041704743, -0.00002386933)"/>
  <path style="fill: rgb(255, 218, 45); stroke: rgba(0, 0, 0, 0); transform-origin: 177.773px 156.853px;" d="M 133.982 183.121 C 133.982 183.121 143.243 107.82 221.565 129.766 C 211.7 211.71 133.982 183.121 133.982 183.121 Z" transform="matrix(0.011566001922, -0.999932944775, 0.999932944775, 0.011566001922, -0.000003531786, -0.000012910064)"/>
  <path style="fill: rgb(255, 218, 45); stroke: rgba(0, 0, 0, 0); transform-origin: 282.707px 217.462px;" d="M 238.916 243.73 C 238.916 243.73 248.177 168.428 326.498 190.374 C 316.633 272.32 238.916 243.73 238.916 243.73 Z" transform="matrix(0.865931928158, 0.500161111355, -0.500161111355, 0.865931928158, -0.000021617956, 9.84523e-7)"/>
  <ellipse style="fill: rgb(113, 76, 47); stroke: rgba(0, 0, 0, 0);" cx="213.023" cy="219.82" rx="49.559" ry="49.559"/>
</svg>